


[img]http://i.minus.com/iYhNuSBqx0eQz.jpg[/img]

[img]http://i.minus.com/iboIcxHdTgxvKN.jpg[/img]

[img]http://i.minus.com/ijAC3IxhwQJb8.jpg[/img]

[img]http://i.minus.com/i4KWCfRIchr4c.jpg[/img]

Complete name                    : scooby doo - the mystery begins x264-salman sk.mkv
Format                           : Matroska
File size                        : 700 MiB
Duration                         : 1h 22mn
Overall bit rate                 : 1 188 Kbps
Encoded date                     : UTC 2011-09-16 07:46:37

video
ID                               : 1
Format                           : AVC
Format profile                   : Simple@L3
Format settings, BVOP            : No
Format settings, QPel            : No
Format settings, GMC             : No warppoints
Format settings, Matrix          : Default (H.263)
Codec ID                         : V_MPEG4/ISO/AVC
Duration                         : 1h 22mn
Bit rate                         : 1 036 Kbps
Width                            : 700 pixels
Height                           : 400 pixels
Display aspect ratio             : 16:9
Frame rate                       : 23.976 fps
Color space                      : YUV
Chroma subsampling               : 4:2:0
Bit depth                        : 8 bits
Scan type                        : Progressive
Bits/(Pixel*Frame)               : 0.154
Stream size                      : 610 MiB (87%)
Writing library                  : x264 core 112

audio
ID                               : 2
Format                           : MPEG Audio
Format version                   : Version 1
Format profile                   : Layer 3
Mode                             : Joint stereo
Mode extension                   : MS Stereo
Codec ID                         : A_MPEG/L3
Codec ID/Hint                    : MP3
Duration                         : 1h 22mn
Bit rate mode                    : Constant
Bit rate                         : 128 Kbps
Channel(s)                       : 2 channels
Sampling rate                    : 48.0 KHz
Stream size                      : 75.4 MiB (11%)
Audio language			 : English